<?xml version="1.0" encoding="UTF-8" standalone="no"?><svg width="108px" height="27px" viewBox="0 0 108 27" version="1.1" xmlns="http://www.w3.org/2000/svg" xmlns:xlink="http://www.w3.org/1999/xlink" xmlns:sketch="http://www.bohemiancoding.com/sketch/ns">        <title>earnest-logo-white</title>    <desc>Created with Sketch.</desc>    <defs></defs>    <g id="Rate-Check" stroke="none" stroke-width="1" fill="none" fill-rule="evenodd" sketch:type="MSPage">        <g id="rate-check@2x" sketch:type="MSArtboardGroup" transform="translate(-26.000000, -19.000000)" fill="#1BB580">            <g id="Nav-Bar" sketch:type="MSLayerGroup">                <g id="earnest-logo-white" transform="translate(26.000000, 19.000000)" sketch:type="MSShapeGroup">                    <path d="M4.36925153,15.3502373 C4.51656442,13.4456271 6.05793865,11.3940508 8.7393865,11.3940508 C11.6761472,11.3940508 13.0724172,13.2618644 13.1450798,15.3502373 L4.36925153,15.3502373 L4.36925153,15.3502373 Z M8.70228221,7.84108475 C4.18593865,7.84108475 0,11.5771525 0,17.2191525 C0,23.2628305 4.29614724,26.779661 9.14267485,26.779661 C13.4388221,26.779661 16.2660368,24.2519322 17.2212515,21.1387627 L13.622135,20.0022542 C13.0346503,21.7612203 11.7132515,23.1167458 9.14267485,23.1167458 C6.49877301,23.1167458 4.36925153,21.1751186 4.25904294,18.4645085 L17.3307975,18.4645085 C17.3670184,18.3913559 17.4410061,17.8043729 17.4410061,17.1092034 C17.4410061,11.4672034 14.2098405,7.84108475 8.70228221,7.84108475 L8.70228221,7.84108475 Z" id="Fill-1"></path>                    <path d="M29.7033129,18.8298305 C29.7033129,22.3103051 27.6477791,23.4465932 25.2600736,23.4465932 C23.5713865,23.4465932 22.6530552,22.347322 22.6530552,21.1387627 C22.6530552,19.6721864 23.7186994,18.94 25.0400982,18.7198814 L29.7033129,18.0244915 L29.7033129,18.8298305 L29.7033129,18.8298305 Z M33.8899141,14.507661 C33.8899141,10.9540339 31.7966135,7.84108475 26.2890552,7.84108475 C21.8829202,7.84108475 19.092589,10.5887119 18.7610798,13.6655254 L22.6530552,14.5444576 C22.8374724,12.7493559 24.0848834,11.3208983 26.3254969,11.3208983 C28.6745521,11.3208983 29.7033129,12.5294576 29.7033129,14.0315085 C29.7033129,14.6537458 29.4086871,15.1675763 28.3816933,15.3138814 L23.7918037,16.0092712 C20.7441718,16.4492881 18.3942331,18.2073729 18.3942331,21.3950169 C18.3942331,24.2153559 20.7079509,26.779661 24.4526135,26.779661 C27.3531534,26.779661 29.1158282,25.3148475 29.9606135,23.9597627 C29.9606135,25.387339 30.1072638,26.1195254 30.1443681,26.2303559 L34.1096687,26.2303559 C34.073227,26.0472542 33.8899141,24.984339 33.8899141,23.3727797 L33.8899141,14.507661 L33.8899141,14.507661 Z" id="Fill-4"></path>                    <path d="M40.4242454,11.2479661 L40.4242454,8.39038983 L36.2747485,8.39038983 L36.2747485,26.2303559 L40.5346748,26.2303559 L40.5346748,17.7321017 C40.5346748,14.3970508 42.0396074,12.4931017 45.3447607,12.4931017 C45.785816,12.4931017 46.2628712,12.5294576 46.7397055,12.6032712 L46.7397055,8.28110169 C46.5561718,8.24430508 46.1151166,8.17049153 45.6016196,8.17049153 C43.2521227,8.17049153 41.268589,9.30567797 40.4242454,11.2479661" id="Fill-5"></path>                    <path d="M57.7172761,7.87788136 C55.7348466,7.87788136 53.6048834,8.72023729 52.4299141,10.7718136 L52.4299141,8.39038983 L48.2801963,8.39038983 L48.2801963,26.2303559 L52.5401227,26.2303559 L52.5401227,15.937 C52.5401227,13.5925932 53.824638,11.7238983 56.2483436,11.7238983 C58.9275828,11.7238983 59.9201227,13.4815424 59.9201227,15.6800847 L59.9201227,26.2303559 L64.1789448,26.2303559 L64.1789448,14.947678 C64.1789448,11.0278475 62.0863067,7.87788136 57.7172761,7.87788136" id="Fill-6"></path>                    <path d="M70.0895706,15.3502373 C70.2357791,13.4456271 71.777816,11.3940508 74.4579387,11.3940508 C77.3960245,11.3940508 78.7909693,13.2618644 78.8651779,15.3502373 L70.0895706,15.3502373 L70.0895706,15.3502373 Z M74.4221595,7.84108475 C69.9044908,7.84108475 65.7194356,11.5771525 65.7194356,17.2191525 C65.7194356,23.2628305 70.015362,26.779661 74.8634356,26.779661 C79.1589202,26.779661 81.9852515,24.2519322 82.9402454,21.1387627 L79.3413497,20.0022542 C78.7547485,21.7612203 77.4326871,23.1167458 74.8634356,23.1167458 C72.219092,23.1167458 70.0895706,21.1751186 69.9791411,18.4645085 L83.0502331,18.4645085 C83.0868957,18.3913559 83.1606626,17.8043729 83.1606626,17.1092034 C83.1606626,11.4672034 79.9297178,7.84108475 74.4221595,7.84108475 L74.4221595,7.84108475 Z" id="Fill-7"></path>                    <path d="M108,13.7882542 L108,10.0160508 L104.254454,10.0160508 L104.254454,7.37837288 L104.252245,7.37638983 C104.25092,3.83774576 101.376,0.968711864 97.8274601,0.968711864 C94.2795828,0.968711864 91.4015706,3.83818644 91.4015706,7.37837288 C91.4015706,7.54010169 91.4157055,7.69786441 91.427411,7.8560678 C91.302184,7.85166102 91.1831411,7.84108475 91.0530552,7.84108475 C87.3446135,7.84108475 84.4811779,10.4778814 84.4811779,13.5925932 C84.4811779,16.0462881 86.1332025,18.0967627 89.2903804,18.7936949 L91.9351656,19.3797966 C93.3663313,19.6721864 94.0275828,20.4050339 94.0275828,21.357339 C94.0275828,22.4566102 93.110135,23.4095763 91.3479018,23.4095763 C89.0699632,23.4095763 87.8596564,21.9811186 87.711681,20.3688983 L84.0032393,21.3950169 C84.2236564,23.4095763 86.2065276,26.779661 91.3830184,26.779661 C95.936908,26.779661 98.1397546,23.775339 98.1397546,21.0645085 C98.1397546,18.4274915 96.378184,16.3770169 92.9992638,15.6443898 L90.2824785,15.0944237 C89.1803926,14.8738644 88.4838037,14.1780339 88.4838037,13.2255085 C88.4838037,12.1262373 89.5483436,11.1748136 91.0530552,11.1748136 C92.0447117,11.1748136 92.754773,11.4614746 93.2594356,11.868 C93.2813006,11.8893729 93.3219387,11.9164746 93.3219387,11.9164746 L93.3219387,11.9155932 L95.4196564,9.88538983 C95.0267485,9.50927119 94.7177669,9.04523729 94.5331288,8.52083051 C94.4090061,8.16344068 94.3389939,7.77938983 94.3389939,7.37837288 C94.3389939,5.45701695 95.9002454,3.89922034 97.8274601,3.89922034 C99.7548957,3.89922034 101.315485,5.45701695 101.315485,7.37837288 C101.315485,8.43357627 100.843288,9.37728814 100.099877,10.0160508 C99.5444172,10.4922034 98.835681,10.7929661 98.0582577,10.8440847 L98.0582577,13.7882542 L100.031853,13.7882542 L100.031853,21.1387627 C100.031853,24.4718305 102.088491,26.4502542 105.394086,26.4502542 C106.93546,26.4502542 107.742479,26.1565424 108,26.0472542 L108,22.5299831 C107.816687,22.5674407 107.11789,22.6767288 106.531288,22.6767288 C104.95281,22.6767288 104.254454,22.0165932 104.254454,20.4422712 L104.254454,13.7882542 L108,13.7882542" id="Fill-8"></path>                </g>            </g>        </g>    </g></svg>